<svg xmlns="http://www.w3.org/2000/svg" xmlns:xlink="http://www.w3.org/1999/xlink" width="229.19" height="103.963" viewBox="0 0 229.19 103.963">
  <defs>
    <clipPath id="clip-path">
      <rect id="Rectangle_9" data-name="Rectangle 9" width="229.19" height="103.963" fill="#fcfbfa"/>
    </clipPath>
  </defs>
  <g id="Group_13" data-name="Group 13" transform="translate(0 31)">
    <g id="Group_12" data-name="Group 12" transform="translate(0 -31)" clip-path="url(#clip-path)">
      <path id="Path_13" data-name="Path 13" d="M607.193,211.082c.2-.019.331-.04.456-.04,2.436,0,4.872.01,7.308,0a.663.663,0,0,1,.755.565q5.206,16.951,10.442,33.893a12.9,12.9,0,0,0,.684,1.847q.325-1.068.651-2.136,5.066-16.532,10.131-33.065c.34-1.11.329-1.113,1.517-1.11,2.222,0,4.444.017,6.666.008a.59.59,0,0,1,.664.491q5.191,16.981,10.4,33.958c.184.6.373,1.2.56,1.8l.128,0c.149-.461.3-.92.446-1.383q5.132-16.64,10.26-33.282a6.914,6.914,0,0,0,.324-1.128c.057-.446.328-.458.66-.457q2.691,0,5.382,0h2.415c-.056.232-.078.372-.123.5q-7.225,21.271-14.453,42.541c-.2.6-.384,1.216-.617,1.808a.617.617,0,0,1-.431.346c-2.714.021-5.428.015-8.146.015l-11.057-32.563-.116-.014c-.062.154-.132.305-.186.463q-3.691,10.854-7.38,21.71c-1.124,3.31-2.251,6.619-3.354,9.935a.6.6,0,0,1-.693.48c-2.5-.019-5-.015-7.506,0a.524.524,0,0,1-.591-.429q-4.549-13.459-9.12-26.911-2.865-8.443-5.737-16.883c-.1-.292-.206-.582-.337-.949" transform="translate(-447.852 -155.651)" fill="#fcfbfa"/>
      <path id="Path_14" data-name="Path 14" d="M399.849,232.712c-.568-.342-1.137-.638-1.656-1a8.7,8.7,0,0,1-4-7.726,8.861,8.861,0,0,1,5.236-8c.38-.191.4-.36.286-.715A8.954,8.954,0,0,1,400.843,207a9.092,9.092,0,0,1,9.678-3.623c.443.109.884.227,1.33.341,1.877-3.546,4.729-5.544,8.81-5.369,3.738.16,6.293,2.185,7.949,5.5.434-.123.869-.256,1.309-.369a9.125,9.125,0,0,1,11.183,11.82c-.1.3-.124.484.23.656a8.842,8.842,0,0,1,5.235,7.232c.452,3.911-1.265,6.86-4.576,8.935-.331.208-.678.39-.935.537.189,1.035.445,2,.53,2.982a9.127,9.127,0,0,1-7.819,9.593,8.928,8.928,0,0,1-4.414-.471c-.344-.131-.48-.038-.639.265a9.116,9.116,0,0,1-6.369,5.037,9.412,9.412,0,0,1-10.067-4.653,3.021,3.021,0,0,1-.176-.351c-.131-.355-.344-.394-.693-.27a9.124,9.124,0,0,1-12.124-7.361,9.685,9.685,0,0,1,.5-4.438,2.8,2.8,0,0,0,.067-.274m34.437-20c.033-1.614-1.114-2.575-2.329-2.262a8.718,8.718,0,0,0-1.631.668c-1.03.506-2.018,1.106-3.07,1.557a2.445,2.445,0,0,1-3.284-1.04,20.258,20.258,0,0,1-1.076-2.352,24.136,24.136,0,0,0-1.275-2.8,1.671,1.671,0,0,0-3.017.149,14.08,14.08,0,0,0-.839,2.393,9.3,9.3,0,0,1-1.112,2.861,2.18,2.18,0,0,1-2.451.949,12.2,12.2,0,0,1-2.133-.863c-.98-.457-1.923-1-2.916-1.421a1.867,1.867,0,0,0-2.161.5,1.66,1.66,0,0,0-.363,1.945c.324.782.757,1.518,1.116,2.286a23.353,23.353,0,0,1,1.212,2.769,1.989,1.989,0,0,1-1,2.431,20.387,20.387,0,0,1-2.578,1.065c-.931.357-1.9.624-2.794,1.059a2.074,2.074,0,0,0-.915,1.077c-.353.966.148,1.86,1.3,2.37a17.408,17.408,0,0,0,2.147.707,8.887,8.887,0,0,1,2.949,1.192,2.177,2.177,0,0,1,.931,2.309,10.327,10.327,0,0,1-1.3,2.946,22.7,22.7,0,0,0-1.071,2.2,1.758,1.758,0,0,0,.451,2.027,1.808,1.808,0,0,0,2.056.374c.519-.2,1.007-.475,1.51-.715,1.006-.479,1.984-1.038,3.027-1.416a2.346,2.346,0,0,1,3.271,1.31,25.769,25.769,0,0,1,.921,2.575,14.554,14.554,0,0,0,.96,2.447,1.869,1.869,0,0,0,3.34-.158c.323-.8.554-1.635.853-2.446a22.127,22.127,0,0,1,1.113-2.808,2.193,2.193,0,0,1,2.675-1.033,11.182,11.182,0,0,1,1.678.69c1.036.5,2.041,1.056,3.091,1.52a1.825,1.825,0,0,0,2.154-.311,1.882,1.882,0,0,0,.439-2.13c-.257-.684-.627-1.326-.952-1.984a26.305,26.305,0,0,1-1.225-2.5,2.256,2.256,0,0,1,1.249-3.182,24.17,24.17,0,0,1,2.489-.911,20.983,20.983,0,0,0,2.683-1.081,1.7,1.7,0,0,0,.215-2.795,2.417,2.417,0,0,0-.7-.442c-.826-.315-1.67-.583-2.5-.891a19.024,19.024,0,0,1-2.412-.963,2.16,2.16,0,0,1-1.122-2.661,7.243,7.243,0,0,1,.547-1.463c.366-.73.823-1.415,1.185-2.147.307-.621.535-1.282.668-1.608" transform="translate(-290.746 -146.287)" fill="#fcfbfa"/>
      <path id="Path_15" data-name="Path 15" d="M206.859,220.906v35.253H198.9v-1.081q0-21.664.006-43.328c0-.769,0-.767.761-.766,2.914,0,5.827.015,8.741-.009a1.359,1.359,0,0,1,1.308.7c1.908,2.861,3.872,5.686,5.817,8.523q8.017,11.691,16.034,23.382c.637.929,1.283,1.852,2,2.893a4.614,4.614,0,0,0,.062-.48q-.009-17.272-.034-34.544c0-.4.159-.466.487-.465q3.555.01,7.111,0c.349,0,.409.163.4.455-.012.8-.007,1.6-.007,2.4q0,20.413-.007,40.826c0,.376-.017.753,0,1.128.01.284-.077.413-.39.412-3.21-.008-6.42,0-9.63-.017a.663.663,0,0,1-.464-.257q-9.445-13.75-18.871-27.512-2.473-3.606-4.956-7.206c-.089-.129-.193-.247-.29-.371l-.124.058" transform="translate(-146.703 -155.61)" fill="#fcfbfa"/>
      <path id="Path_16" data-name="Path 16" d="M37.5,220.347q-1.778,0-3.556,0c-.243,0-.439.007-.467-.338a4.611,4.611,0,0,0-2.047-3.424,11.869,11.869,0,0,0-5.126-2.032,26.692,26.692,0,0,0-7.373-.313,16.986,16.986,0,0,0-7.346,2.2,5,5,0,0,0-2.413,3.152,4.523,4.523,0,0,0,2.48,5.033,12.212,12.212,0,0,0,4.595,1.392c2.515.291,5.042.477,7.565.693,3.948.337,7.905.623,11.7,1.882,2.984.991,5.548,2.58,6.929,5.508,2.418,5.128,1.7,11.166-3.593,15.239a22.333,22.333,0,0,1-8.969,4,35.1,35.1,0,0,1-19.211-.922,17.553,17.553,0,0,1-7.891-5.1A11.431,11.431,0,0,1,0,240.437c-.018-.275.06-.391.344-.39,2.42.006,4.84,0,7.259.021a.5.5,0,0,1,.357.324,4.6,4.6,0,0,0,2.089,3.451,14.929,14.929,0,0,0,7.351,2.7,36.008,36.008,0,0,0,8.617.081,15.814,15.814,0,0,0,7.649-2.774,4.585,4.585,0,0,0,2.079-3.259,4.865,4.865,0,0,0-3.347-5.333,22.494,22.494,0,0,0-5.675-1.191c-2.751-.248-5.512-.4-8.259-.683-2.237-.229-4.474-.515-6.687-.909a16.293,16.293,0,0,1-4.657-1.554,10.319,10.319,0,0,1-5.585-7.087,11.547,11.547,0,0,1,.931-8.558,13.588,13.588,0,0,1,4.119-4.43,22.239,22.239,0,0,1,9.114-3.514,32.046,32.046,0,0,1,13.177.243,19.173,19.173,0,0,1,8.094,3.778,11.67,11.67,0,0,1,4.481,8.216c.068.759.079.758-.69.758H37.5v.019" transform="translate(0 -152.505)" fill="#fcfbfa"/>
      <path id="Path_17" data-name="Path 17" d="M174.051,45.269v-2.5q0-20.976.006-41.951c0-.743,0-.739.746-.739l37.627,0c.329,0,.66.023.987,0,.357-.026.484.08.479.464q-.037,3.262-.016,6.524c0,.429-.184.473-.533.473q-10.666,0-21.331,0c-3.144,0-6.287.007-9.431-.013-.437,0-.563.121-.56.549.017,2.044.009,4.089,0,6.133a.492.492,0,0,0,.394.572,8.464,8.464,0,0,1,4.639,3.381c.883,1.261,1.783,2.511,2.677,3.764a3.427,3.427,0,0,0,.305.384c.265.277.527.313.774-.031.229-.319.467-.632.7-.95.924-1.272,1.8-2.583,2.779-3.811a7.6,7.6,0,0,1,9.371-2.119,9.508,9.508,0,0,1,3.193,2.874q1.567,2.079,3.1,4.185a1.064,1.064,0,0,1,.174.59c.007,2.11-.01,4.219,0,6.329,0,.413-.109.528-.544.485a7.969,7.969,0,0,1-5.933-3.537c-.928-1.309-1.815-2.648-2.745-3.955-.545-.766-.668-.772-1.227,0-1,1.378-1.943,2.8-2.946,4.175a7.556,7.556,0,0,1-4.675,3.138,7.645,7.645,0,0,1-8-3.151c-.544-.7-1.021-1.444-1.529-2.168a1.6,1.6,0,0,0-.489-.5c-.01.154-.029.307-.029.461,0,4.35.014,8.7,0,13.051,0,.468.21.478.564.478q15.308-.009,30.616,0h.646v7.414Z" transform="translate(-128.376 -0.058)" fill="#fcfbfa"/>
      <path id="Path_18" data-name="Path 18" d="M342.855,45.167c.3-1.066.569-2.138.9-3.192a33.769,33.769,0,0,1,4.532-9.739,32.473,32.473,0,0,1,6.152-6.665,1.25,1.25,0,0,0,.506-.938,43.207,43.207,0,0,1,9.43-23.248,4.813,4.813,0,0,0,.564-.742A1.2,1.2,0,0,1,366.189,0c2.583.038,5.168.038,7.752.032a.665.665,0,0,1,.708.455q5.03,11.152,10.08,22.294,4.884,10.788,9.771,21.573c.119.263.232.529.373.85-.2.016-.341.036-.479.036-2.6,0-5.2,0-7.8.008a.53.53,0,0,1-.584-.362q-8.472-18.556-16.968-37.1c-.067-.147-.141-.291-.243-.5a36.971,36.971,0,0,0-6.066,14.43c.537-.049,1-.092,1.472-.133A11.267,11.267,0,0,1,375.845,28.8a8.579,8.579,0,0,1-5.156,11.435c-4.3,1.6-8.072.548-11.355-2.5a14.018,14.018,0,0,1-2.771-3.793c-.037-.07-.086-.133-.237-.367a3.32,3.32,0,0,1-.275.473,24.253,24.253,0,0,0-5.5,10.876.466.466,0,0,1-.321.3c-2.387.016-4.773.01-7.16.007a1.065,1.065,0,0,1-.213-.068M367,33.688a7.051,7.051,0,0,0,1.055-.265,1.417,1.417,0,0,0,.907-2.075,3.479,3.479,0,0,0-.442-.814c-1.557-2.071-3.581-1.96-5.726-1.3a.406.406,0,0,0-.151.367,15.291,15.291,0,0,0,1.32,2.441A3.791,3.791,0,0,0,367,33.688" transform="translate(-252.882 0)" fill="#fcfbfa"/>
      <path id="Path_19" data-name="Path 19" d="M568.788,7.559V45.268H560.86V7.6c-.312-.019-.522-.043-.731-.043q-7.505-.007-15.01-.01c-.634,0-.636,0-.637-.633-.006-2.142,0-4.285-.023-6.427,0-.309.1-.414.389-.411.625.006,1.251.006,1.876.006Q565.61.079,584.5.071c.474,0,.6.116.6.6-.031,2.044-.015,4.089-.013,6.133,0,.735,0,.741-.71.742q-7.406.01-14.812.015h-.771" transform="translate(-401.58 -0.052)" fill="#fcfbfa"/>
    </g>
  </g>
</svg>
