<svg xmlns="http://www.w3.org/2000/svg" xmlns:xlink="http://www.w3.org/1999/xlink" width="121.899" height="120.663" viewBox="0 0 121.899 120.663">
  <defs>
    <clipPath id="clip-path">
      <rect id="Rectangle_32" data-name="Rectangle 32" width="121.899" height="120.663" fill="#eeee60"/>
    </clipPath>
  </defs>
  <g id="Group_37" data-name="Group 37" clip-path="url(#clip-path)">
    <path id="Path_54" data-name="Path 54" d="M13.151,79.9c-1.32-.794-2.643-1.484-3.85-2.335C3.085,73.187-.26,67.15.016,59.612.324,51.163,4.522,44.87,12.185,41.025c.883-.443.932-.837.663-1.661-2.226-6.819-1.5-13.285,2.613-19.233a21.133,21.133,0,0,1,22.495-8.42c1.031.253,2.056.527,3.091.793C45.41,4.262,52.04-.382,61.525.025,70.214.4,76.152,5.1,80,12.8c1.009-.286,2.019-.595,3.042-.859,10.481-2.706,21.033,2.1,25.291,11.486a21.263,21.263,0,0,1,.7,15.988c-.233.7-.289,1.125.534,1.525,7.066,3.439,11.279,9.12,12.167,16.81,1.05,9.089-2.94,15.944-10.636,20.767-.769.482-1.575.906-2.174,1.248.439,2.4,1.034,4.651,1.233,6.931.939,10.744-7.387,20.889-18.172,22.3A20.754,20.754,0,0,1,81.726,107.9c-.8-.306-1.115-.089-1.486.616-3.187,6.071-7.895,10.233-14.8,11.708a21.875,21.875,0,0,1-23.4-10.815,6.918,6.918,0,0,1-.408-.814c-.3-.826-.8-.917-1.611-.628A21.207,21.207,0,0,1,11.841,90.853,22.509,22.509,0,0,1,13,80.539a6.346,6.346,0,0,0,.156-.636" transform="translate(0 -0.001)" fill="#eeee60"/>
  </g>
</svg>
